#!OML:ASF F:\twosubjects\two\Thursday\Session 1\justin.ASF
:FULLY-SPECIFIED
:DEGREES
252
root 9.68507 17.8908 10.1512 -333.533 -76.5176 347.034
lowerback 23.5859 0.876525 -1.03916
upperback 6.87614 0.315708 -1.83032
thorax -5.57714 -0.0199919 -1.45832
lowerneck -17.8123 -4.56805 -8.78096
upperneck 22.8777 -7.45995 12.6836
head 11.1972 -2.76592 4.99078
rclavicle 3.26007e-014 -3.73715e-014
rhumerus 19.1762 -43.4898 -42.2417
rradius 74.836
rwrist -81.1628
rhand -19.6567 -26.8135
rfingers 7.12502
rthumb 6.67126 -56.6884
lclavicle 3.26007e-014 -3.73715e-014
lhumerus -22.8947 -17.3534 86.4816
lradius 56.7286
lwrist 0.720113
lhand -7.66861 36.5093
lfingers 7.12502
lthumb 18.2277 65.6753
rfemur -44.1972 -10.8559 16.917
rtibia 54.3945
rfoot 1.80384 -16.8561
rtoes -14.4976
lfemur -39.3965 1.83503 -12.0143
ltibia 42.5709
lfoot -12.8571 -6.51006
ltoes -6.75843
253
root 9.54341 17.9445 10.155 -335.804 -76.5774 348.95
lowerback 23.3955 1.0116 -1.21913
upperback 6.79451 0.452069 -1.92735
thorax -5.56839 0.0498036 -1.49666
lowerneck -18.0563 -4.85005 -8.67188
upperneck 22.8566 -7.94222 12.9102
head 11.3099 -2.94069 4.97786
rclavicle 1.27222e-014 2.62396e-014
rhumerus 19.0648 -43.6941 -42.2158
rradius 74.0345
rwrist -80.6565
rhand -20.9574 -26.3949
rfingers 7.12502
rthumb 5.41552 -56.3057
lclavicle 1.27222e-014 2.62396e-014
lhumerus -23.0615 -17.2548 86.2628
lradius 55.9393
lwrist 0.223885
lhand -5.92186 36.5908
lfingers 7.12502
lthumb 19.9075 65.5912
rfemur -44.0904 -10.817 16.1729
rtibia 55.4017
rfoot 2.01421 -17.2326
rtoes -4.70933
lfemur -38.2577 1.69609 -12.4542
ltibia 42.2527
lfoot -12.9761 -6.45487
ltoes -10.1525
254
root 9.4012 17.9756 10.1532 -336.993 -76.3491 349.78
lowerback 23.1319 0.770477 -1.32534
upperback 6.65435 0.145216 -1.83999
thorax -5.59396 -0.0918892 -1.25566
lowerneck -18.4296 -4.84047 -8.79465
upperneck 23.1899 -7.96494 13.0785
head 11.527 -2.92768 5.07032
rclavicle 7.55382e-015 -6.36111e-015
rhumerus 19.7961 -43.0599 -43.1357
rradius 73.4542
rwrist -80.3572
rhand -23.3138 -25.1255
rfingers 7.12502
rthumb 3.14009 -55.0821
lclavicle 7.55382e-015 -6.36111e-015
lhumerus -23.5127 -16.2402 85.8378
lradius 55.3415
lwrist -0.150178
lhand -6.0432 36.7645
lfingers 7.12502
lthumb 19.7908 65.7769
rfemur -44.0903 -11.2546 16.3405
rtibia 56.3334
rfoot 4.5239 -16.8935
rtoes -10.128
lfemur -37.303 1.53112 -12.5177
ltibia 42.0476
lfoot -13.6111 -6.38536
ltoes -15.1696
255
root 9.26143 18.0303 10.1521 -337.534 -76.33 350.126
lowerback 22.591 0.685829 -1.58719
upperback 6.57657 0.0331442 -1.49582
thorax -5.40602 -0.140324 -0.700448
lowerneck -18.5689 -5.00395 -9.35965
upperneck 22.8966 -7.9801 13.1329
head 11.4731 -2.97256 5.17644
rclavicle 1.31198e-014 8.74653e-015
rhumerus 20.927 -42.5233 -43.8813
rradius 72.749
rwrist -79.4506
rhand -23.7168 -24.908
rfingers 7.12502
rthumb 2.75082 -54.87
lclavicle 1.31198e-014 8.74653e-015
lhumerus -23.8378 -15.0947 85.8436
lradius 54.7702
lwrist -0.544847
lhand -6.51988 36.8093
lfingers 7.12502
lthumb 19.3325 65.8683
rfemur -44.4173 -11.2693 16.35
rtibia 57.2672
rfoot 5.72061 -17.1317
rtoes -8.43661
lfemur -36.355 1.53788 -12.5079
ltibia 41.6031
lfoot -14.2663 -6.36461
ltoes -20.3281
256
root 9.12202 18.0757 10.1504 -338.823 -76.4973 351.173
lowerback 22.1183 0.714983 -2.03013
upperback 6.57139 0.0205108 -1.16859
thorax -5.17096 -0.144732 -0.0899311
lowerneck -18.7414 -5.27559 -10.2498
upperneck 22.4725 -8.10445 13.4658
head 11.4224 -3.06192 5.42363
rclavicle 3.97569e-015 -2.62396e-014
rhumerus 22.1674 -42.2327 -44.5198
rradius 71.8831
rwrist -77.9874
rhand -22.6194 -25.2505
rfingers 7.12502
rthumb 3.81068 -55.1961
lclavicle 3.97569e-015 -2.62396e-014
lhumerus -23.9452 -14.0062 86.036
lradius 53.9834
lwrist -1.07682
lhand -6.85177 37.0881
lfingers 7.12502
lthumb 19.0134 66.1788
rfemur -44.6213 -11.6457 16.497
rtibia 58.1252
rfoot 7.16585 -16.8204
rtoes -9.65203
lfemur -35.33 1.63513 -12.6879
ltibia 41.2309
lfoot -12.2259 -6.86966
ltoes -11.5831
257
root 8.98066 18.1375 10.1439 -340.043 -76.5198 351.943
lowerback 21.8549 0.691425 -2.02989
upperback 6.55704 0.00556811 -1.13318
thorax -5.05169 -0.150894 -0.0475096
lowerneck -18.8215 -5.50742 -10.8735
upperneck 22.2328 -8.42309 14.2298
head 11.4677 -3.17549 5.76624
rclavicle -4.17448e-014 2.22639e-014
rhumerus 22.8384 -42.3182 -45.533
rradius 71.2642
rwrist -76.8673
rhand -22.4144 -25.3789
rfingers 7.12502
rthumb 4.00865 -55.3209
lclavicle -4.17448e-014 2.22639e-014
lhumerus -24.0635 -13.5428 85.805
lradius 53.0868
lwrist -1.35024
lhand -7.56876 37.5722
lfingers 7.12502
lthumb 18.3237 66.7292
rfemur -44.362 -11.3142 15.9957
rtibia 58.9145
rfoot 5.99187 -18.5782
rtoes 2.68588
lfemur -34.0321 1.53991 -12.6803
ltibia 40.7439
lfoot -9.18458 -7.30903
ltoes 6.51652
258
root 8.83857 18.1686 10.1399 -340.926 -76.2775 352.337
lowerback 21.6657 0.616543 -1.73687
upperback 6.51447 -0.0126355 -1.06839
thorax -5.0007 -0.157219 -0.139959
lowerneck -18.735 -5.75411 -11.2382
upperneck 21.9041 -8.77656 14.751
head 11.4314 -3.31672 5.96019
rclavicle -8.34896e-015 7.95139e-015
rhumerus 23.3532 -42.6626 -46.6811
rradius 70.9022
rwrist -75.9101
rhand -22.2664 -25.5664
rfingers 7.12502
rthumb 4.1515 -55.5057
lclavicle -8.34896e-015 7.95139e-015
lhumerus -24.1718 -13.4086 85.5498
lradius 52.2767
lwrist -1.45896
lhand -6.9619 37.7086
lfingers 7.12502
lthumb 18.9075 66.8096
rfemur -44.3577 -12.0135 16.5447
rtibia 59.3968
rfoot 8.36439 -18.5321
rtoes -1.75598
lfemur -32.8509 1.25301 -12.5145
ltibia 40.3291
lfoot -8.08618 -7.51672
ltoes 12.8362
259
root 8.69736 18.2103 10.1347 -341.449 -75.9584 352.511
lowerback 21.5387 0.455771 -1.61623
upperback 6.26875 -0.16511 -0.9143
thorax -5.19969 -0.221609 -0.0049729
lowerneck -18.5139 -5.75783 -10.8738
upperneck 21.7739 -8.807 14.4215
head 11.3064 -3.34602 5.75764
rclavicle 3.22031e-014 1.78906e-014
rhumerus 23.8078 -42.5128 -47.7688
rradius 70.5979
rwrist -74.5637
rhand -21.2387 -25.7011
rfingers 7.12502
rthumb 5.14384 -55.6187
lclavicle 3.22031e-014 1.78906e-014
lhumerus -24.5641 -12.7947 85.2868
lradius 51.5326
lwrist -1.59112
lhand -5.67499 37.5582
lfingers 7.12502
lthumb 20.1448 66.5337
rfemur -43.8637 -11.9998 16.2462
rtibia 59.8391
rfoot 4.59205 -20.0771
rtoes 12.5753
lfemur -31.7785 0.951387 -12.2789
ltibia 39.7621
lfoot -8.20346 -7.80674
ltoes 7.1617
260
root 8.55644 18.2456 10.1247 -342.233 -75.9781 353.196
lowerback 21.2782 0.49598 -1.74054
upperback 5.90723 -0.115638 -0.953931
thorax -5.45685 -0.183428 0.0101575
lowerneck -18.2708 -5.73567 -10.0634
upperneck 21.6759 -8.92015 14.0027
head 11.1752 -3.38773 5.43203
rclavicle -1.66979e-014 9.14409e-015
rhumerus 23.4641 -42.4127 -48.3258
rradius 70.4529
rwrist -73.2491
rhand -20.5555 -25.5931
rfingers 7.12502
rthumb 5.80348 -55.4937
lclavicle -1.66979e-014 9.14409e-015
lhumerus -25.0656 -12.5353 84.8675
lradius 50.7912
lwrist -1.56084
lhand -5.81933 37.5134
lfingers 7.12502
lthumb 20.006 66.5035
rfemur -44.3079 -12.9489 16.9421
rtibia 59.9105
rfoot 5.66495 -19.0748
rtoes 4.5449
lfemur -30.9469 0.853366 -12.2382
ltibia 39.3284
lfoot -9.23735 -8.19703
ltoes -3.43768
261
root 8.41326 18.2885 10.1102 -344.2 -75.9202 354.989
lowerback 21.0256 0.683059 -1.91033
upperback 5.72577 0.105047 -1.01401
thorax -5.52495 -0.0682445 -0.0135571
lowerneck -18.2624 -6.05027 -10.1072
upperneck 21.4768 -9.4314 14.3519
head 11.2003 -3.5893 5.47948
rclavicle -3.97569e-016 -1.82882e-014
rhumerus 22.93 -42.9791 -48.5751
rradius 70.5003
rwrist -72.0803
rhand -22.1851 -24.2693
rfingers 7.12502
rthumb 4.23 -54.207
lclavicle -3.97569e-016 -1.82882e-014
lhumerus -25.2304 -12.8693 84.6941
lradius 50.0079
lwrist -1.60457
lhand -6.58097 37.7642
lfingers 7.12502
lthumb 19.2738 66.8291
rfemur -44.289 -13.3133 16.7317
rtibia 59.8674
rfoot 3.83581 -19.3029
rtoes 7.76965
lfemur -29.9919 0.799759 -12.5217
ltibia 38.9024
lfoot -10.8167 -8.60364
ltoes -14.9355
262
root 8.26882 18.3097 10.0947 -345.649 -75.7549 356.181
lowerback 20.8002 0.762843 -1.94403
upperback 5.60491 0.221651 -0.951328
thorax -5.54028 -0.00612297 0.0439491
lowerneck -18.2982 -6.38907 -10.6745
upperneck 21.2964 -9.8914 14.967
head 11.2818 -3.78041 5.72933
rclavicle -1.43125e-014 9.14409e-015
rhumerus 23.0134 -43.4722 -49.2536
rradius 70.4525
rwrist -70.7453
rhand -22.744 -23.8549
rfingers 7.12502
rthumb 3.69035 -53.8027
lclavicle -1.43125e-014 9.14409e-015
lhumerus -25.3089 -12.6636 84.5841
lradius 49.1783
lwrist -1.98895
lhand -6.65885 37.8557
lfingers 7.12502
lthumb 19.1989 66.9281
rfemur -44.041 -13.7793 16.9207
rtibia 59.3177
rfoot 3.62331 -18.9833
rtoes 3.22966
lfemur -29.096 0.830495 -12.6567
ltibia 38.5413
lfoot -12.1383 -8.99763
ltoes -22.0179
263
root 8.13135 18.3375 10.0877 -346.836 -75.8544 357.273
lowerback 20.4246 0.810326 -2.01887
upperback 5.4453 0.287521 -0.981759
thorax -5.51805 0.0326422 0.0386876
lowerneck -18.4 -6.59793 -10.7802
upperneck 21.1861 -10.2101 15.2253
head 11.3356 -3.90403 5.78646
rclavicle 8.54774e-015 3.81667e-014
rhumerus 23.2749 -43.6681 -50.2098
rradius 70.3611
rwrist -69.2557
rhand -22.3196 -24.114
rfingers 7.12502
rthumb 4.10015 -54.0543
lclavicle 8.54774e-015 3.81667e-014
lhumerus -25.3962 -12.0679 84.2191
lradius 48.3374
lwrist -2.43089
lhand -6.06368 37.7577
lfingers 7.12502
lthumb 19.7711 66.7722
rfemur -44.0186 -14.2691 17.1406
rtibia 58.443
rfoot 3.76269 -18.2338
rtoes -2.48217
lfemur -28.3339 0.8323 -12.8082
ltibia 38.1355
lfoot -12.1591 -9.31049
ltoes -22.8451
